<?xml version="1.0" encoding="UTF-8"?>
<svg xmlns="http://www.w3.org/2000/svg" width="512" height="512" viewBox="0 0 512 512">
  <defs>
    <linearGradient id="shieldFill" x1="0%" y1="0%" x2="100%" y2="100%">
      <stop offset="0%" stop-color="#4A4A4A"/>
      <stop offset="40%" stop-color="#2C2C2C"/>
      <stop offset="100%" stop-color="#111111"/>
    </linearGradient>
    <linearGradient id="edge" x1="0%" y1="0%" x2="100%" y2="100%">
      <stop offset="0%" stop-color="#FFFFFF"/>
      <stop offset="100%" stop-color="#AFAFAF"/>
    </linearGradient>
    <filter id="shadow" x="-20%" y="-20%" width="140%" height="140%">
      <feDropShadow dx="0" dy="6" stdDeviation="10" flood-color="#000000" flood-opacity=".35"/>
    </filter>
  </defs>

  <g filter="url(#shadow)">
    <path d="M256 38L392 92V220c0 104-69 184-136 235C189 404 120 324 120 220V92L256 38z"
          fill="url(#shieldFill)"
          stroke="url(#edge)"
          stroke-width="7"/>
    <path d="M130 235h45l24 35 32-103 28 156 36-88h39"
          fill="none"
          stroke="#F7F7F7"
          stroke-width="18"
          stroke-linecap="round"
          stroke-linejoin="round"/>
    <path d="M334 235h18M334 235l38-38M334 235l38 38"
          fill="none"
          stroke="#F7F7F7"
          stroke-width="16"
          stroke-linecap="round"/>
    <circle cx="388" cy="197" r="11" fill="#F7F7F7"/>
    <circle cx="388" cy="235" r="11" fill="#F7F7F7"/>
    <circle cx="388" cy="273" r="11" fill="#F7F7F7"/>
    <path d="M154 92c30-16 67-30 102-39"
          fill="none"
          stroke="#FFFFFF"
          stroke-opacity=".22"
          stroke-width="5"
          stroke-linecap="round"/>
  </g>
</svg>
